# xmcd CD database file
#
# Track frame offsets:
#	150
#	22255
#	41126
#	62917
#	82604
#	102489
#	117825
#	149201
#	171888
#	189667
#	208546
#
# Disc length: 2967 seconds
#
# Revision: 4
# Processed by: cddbd v1.5.1PL0 Copyright (c) Steve Scherf et al.
# Submitted via: CDex 1.51
#
DISCID=a30b950b
DTITLE=KeRUMANTU - VOL.1
DYEAR=1900
DGENRE=
TTITLE0=EL PITUKO
TTITLE1=EL PANORAMA
TTITLE2=AROKAWA
TTITLE3=NOSTALGIA
TTITLE4=TAKIRARI DE VERANO
TTITLE5=RUMBA LAMBADA
TTITLE6=EL CONDOR PASA
TTITLE7=LLORANDO SE FUE
TTITLE8=CELESTE
TTITLE9=EL HUMAHUAQUENO
TTITLE10=ENCUENTROS
EXTD=
EXTT0=
EXTT1=
EXTT2=
EXTT3=
EXTT4=
EXTT5=
EXTT6=
EXTT7=
EXTT8=
EXTT9=
EXTT10=
PLAYORDER=
